# xmcd
#
# Track frame offsets: 
#        182
#        13072
#        26650
#        40177
#        53987
#        68097
#        83532
#        97630
#        112517
#        127317
#        142622
#        156705
#        171360
#        186232
#        201792
#        216035
#        229357
#        244915
#        258650
#        271810
#        287847
#        301462
#
# Disc length: 4190 seconds
#
# Revision: 2
# Processed by: cddbd v1.5.2PL0 Copyright (c) Steve Scherf et al.
# Submitted via: ExactAudioCopy v1.3
#
DISCID=39105c16
DTITLE=Various Artist - Pure Vintage Blues Vol.2 - Mining Camp Blues)
DYEAR=1996
DGENRE=Blues
TTITLE0=Butterbeans and Susie - He Likes It Slow
TTITLE1=Nolan Welsh - St. Peters Blues
TTITLE2=Grant and Wilson - Find Me At The Greasy Spoon (If You Miss Me H
TTITLE2=ere)
TTITLE3=Baby Mack - You've Got To Go Home On Time
TTITLE4=Little Delk Christian - Last Night I Dreamed You Kissed Me
TTITLE5=Bessie Smith - I Ain't Gonna Play No Second Fiddle (If I Can P
TTITLE5=lay Lead)
TTITLE6=Sippie Wallace - Flood Blues
TTITLE7=Maggie Jones - Anybody Here Want To Try My Cabbage
TTITLE8=Victoria Spivey - Funny Feathers
TTITLE9=Little Delk Christian - I Can't Give You Anything But Love
TTITLE10=Bessie Smith - J.C. Holmes Blues
TTITLE11=Little Delk Christian - I Must Have That Man
TTITLE12=Maggie Jones - If I Lose Let Me Lose
TTITLE13=Bessie Smith - Any Woman's Blues
TTITLE14=Maggie Jones - Good Time Flat Blues
TTITLE15=Bertha "Chippie" Hill - Low Land Blues
TTITLE16=Bessie Smith - Careless Love Blues
TTITLE17=Baby Mack - What Kind O' Man Is That?
TTITLE18=Little Delk Christian - Too Busy
TTITLE19=Nolan Welsh - The Bridewell Blues
TTITLE20=Trixie Smith - Mining Camp Blues
TTITLE21=Little Delk Christian - Baby
EXTD=YEAR: 1996
EXTT0=
EXTT1=
EXTT2=
EXTT3=
EXTT4=
EXTT5=
EXTT6=
EXTT7=
EXTT8=
EXTT9=
EXTT10=
EXTT11=
EXTT12=
EXTT13=
EXTT14=
EXTT15=
EXTT16=
EXTT17=
EXTT18=
EXTT19=
EXTT20=
EXTT21=
PLAYORDER=
